<?xml version="1.0" encoding="UTF-8" standalone="no"?>
<!DOCTYPE svg PUBLIC "-//W3C//DTD SVG 1.1//EN" "http://www.w3.org/Graphics/SVG/1.1/DTD/svg11.dtd">
<svg width="100%" height="100%" viewBox="0 0 479 276" version="1.1" xmlns="http://www.w3.org/2000/svg" xmlns:xlink="http://www.w3.org/1999/xlink" xml:space="preserve" xmlns:serif="http://www.serif.com/" style="fill-rule:evenodd;clip-rule:evenodd;stroke-linejoin:round;stroke-miterlimit:2;">
    <g transform="matrix(1,0,0,1,-1127.5,-2514.45)">
        <g transform="matrix(1.03828,0,0,1.03828,849.376,1140.94)">
            <g>
                <g transform="matrix(5.69221e-17,-0.929609,0.938745,5.74816e-17,-573.631,2497.27)">
                    <path d="M1216.02,1372.22C1195.7,1392.68 1045.83,1392.68 1025.51,1372.22C1005.19,1351.75 1073.67,1269.8 1094.09,1249.43C1101.74,1241.8 1138.64,1240.83 1147.44,1249.43C1168.07,1269.59 1236.34,1351.75 1216.02,1372.22Z"/>
                </g>
                <g transform="matrix(1,0,0,1,-464.378,651.761)">
                    <g transform="matrix(0.963128,0,0,0.963128,-408.728,-1751.17)">
                        <path d="M1504.08,2556.2C1504.08,2533.47 1485.62,2515.01 1462.89,2515.01L1225.85,2515.57C1203.11,2515.57 1184.65,2534.03 1184.65,2556.77L1184.65,2749.02C1184.65,2771.76 1203.11,2790.22 1225.85,2790.22L1462.89,2789.66C1485.62,2789.66 1504.08,2771.2 1504.08,2748.46L1504.08,2556.2ZM1268.69,2693.47L1335.92,2693.47C1335.92,2712.03 1320.86,2727.09 1302.31,2727.09C1283.75,2727.09 1268.69,2712.03 1268.69,2693.47ZM1352.82,2693.47L1420.04,2693.47C1420.04,2712.03 1404.98,2727.09 1386.43,2727.09C1367.88,2727.09 1352.82,2712.03 1352.82,2693.47ZM1254.8,2680.19L1432.4,2679.89C1432.4,2679.89 1438.78,2679.37 1438.72,2672.56C1438.67,2665.75 1432.53,2664.39 1432.53,2664.39L1417.52,2664.54C1417.52,2664.54 1415.04,2609.87 1383.02,2582.48C1383.02,2582.48 1371.4,2572.71 1358.49,2584.68C1345.57,2596.65 1328.55,2582.26 1328.55,2582.26C1328.55,2582.26 1313.97,2569.64 1299.41,2588.56C1267.15,2630.5 1271.73,2664.99 1271.73,2664.99L1255.09,2664.91C1255.09,2664.91 1250.23,2665.56 1250.02,2672.21C1249.81,2678.85 1254.8,2680.19 1254.8,2680.19ZM1452.94,2542.86C1463.84,2542.86 1472.68,2551.7 1472.68,2562.6C1472.68,2573.5 1463.84,2582.34 1452.94,2582.34C1442.04,2582.34 1433.2,2573.5 1433.2,2562.6C1433.2,2551.7 1442.04,2542.86 1452.94,2542.86Z"/>
                    </g>
                </g>
            </g>
        </g>
    </g>
</svg>
